<mxfile host="app.diagrams.net" modified="2022-04-25T21:57:06.973Z" agent="5.0 (Windows NT 10.0; Win64; x64) AppleWebKit/537.36 (KHTML, like Gecko) Chrome/100.0.4896.127 Safari/537.36" etag="dgRfwN_3KaPpuYlfRbWf" version="17.4.6" type="github">
  <diagram id="_q33SbV-KLLzqtAGZ__H" name="Page-1">
    <mxGraphModel dx="1775" dy="1639" grid="1" gridSize="10" guides="1" tooltips="1" connect="1" arrows="1" fold="1" page="1" pageScale="1" pageWidth="827" pageHeight="1169" math="0" shadow="0">
      <root>
        <mxCell id="0" />
        <mxCell id="1" parent="0" />
        <mxCell id="HqeZ5SK1sk_XmQb17yH1-7" value="Варианты интерфейсов" style="rounded=0;whiteSpace=wrap;html=1;fillColor=none;dashed=1;verticalAlign=top;" vertex="1" parent="1">
          <mxGeometry x="294.5" y="21" width="177" height="430" as="geometry" />
        </mxCell>
        <mxCell id="RniRuEI-LTQgacXBKd7i-3" value="&lt;font style=&quot;font-size: 14px&quot;&gt;Сервер&lt;br&gt;Программа&lt;br&gt;&lt;/font&gt;" style="rounded=0;whiteSpace=wrap;html=1;fillColor=#ffe6cc;strokeColor=#d79b00;align=center;labelPosition=center;verticalLabelPosition=middle;verticalAlign=top;" parent="1" vertex="1">
          <mxGeometry x="33" y="21" width="160" height="430" as="geometry" />
        </mxCell>
        <mxCell id="RniRuEI-LTQgacXBKd7i-1" value="BD" style="strokeWidth=2;html=1;shape=mxgraph.flowchart.database;whiteSpace=wrap;" parent="1" vertex="1">
          <mxGeometry x="83" y="351" width="60" height="60" as="geometry" />
        </mxCell>
        <mxCell id="nMpIwDlWurfUDYqlEkx1-2" style="edgeStyle=orthogonalEdgeStyle;rounded=0;orthogonalLoop=1;jettySize=auto;html=1;entryX=1;entryY=0.5;entryDx=0;entryDy=0;startArrow=classic;startFill=1;" parent="1" source="nMpIwDlWurfUDYqlEkx1-1" target="nMpIwDlWurfUDYqlEkx1-3" edge="1">
          <mxGeometry relative="1" as="geometry" />
        </mxCell>
        <mxCell id="nMpIwDlWurfUDYqlEkx1-1" value="Telegram Bot" style="rounded=0;whiteSpace=wrap;html=1;fillColor=#dae8fc;strokeColor=#6c8ebf;" parent="1" vertex="1">
          <mxGeometry x="323" y="81" width="120" height="60" as="geometry" />
        </mxCell>
        <mxCell id="nMpIwDlWurfUDYqlEkx1-5" style="edgeStyle=orthogonalEdgeStyle;rounded=0;orthogonalLoop=1;jettySize=auto;html=1;entryX=0.5;entryY=0;entryDx=0;entryDy=0;startArrow=classic;startFill=1;" parent="1" source="nMpIwDlWurfUDYqlEkx1-3" target="nMpIwDlWurfUDYqlEkx1-4" edge="1">
          <mxGeometry relative="1" as="geometry" />
        </mxCell>
        <mxCell id="nMpIwDlWurfUDYqlEkx1-3" value="Telegram Web" style="rounded=0;whiteSpace=wrap;html=1;" parent="1" vertex="1">
          <mxGeometry x="53" y="81" width="120" height="60" as="geometry" />
        </mxCell>
        <mxCell id="nMpIwDlWurfUDYqlEkx1-6" style="edgeStyle=orthogonalEdgeStyle;rounded=0;orthogonalLoop=1;jettySize=auto;html=1;entryX=0.5;entryY=0;entryDx=0;entryDy=0;entryPerimeter=0;startArrow=classic;startFill=1;" parent="1" source="nMpIwDlWurfUDYqlEkx1-4" target="RniRuEI-LTQgacXBKd7i-1" edge="1">
          <mxGeometry relative="1" as="geometry" />
        </mxCell>
        <mxCell id="nMpIwDlWurfUDYqlEkx1-4" value="API" style="rounded=0;whiteSpace=wrap;html=1;" parent="1" vertex="1">
          <mxGeometry x="53" y="196" width="120" height="60" as="geometry" />
        </mxCell>
        <mxCell id="nMpIwDlWurfUDYqlEkx1-8" style="edgeStyle=orthogonalEdgeStyle;rounded=0;orthogonalLoop=1;jettySize=auto;html=1;endArrow=classic;endFill=1;startArrow=classic;startFill=1;" parent="1" source="nMpIwDlWurfUDYqlEkx1-7" target="nMpIwDlWurfUDYqlEkx1-4" edge="1">
          <mxGeometry relative="1" as="geometry" />
        </mxCell>
        <mxCell id="nMpIwDlWurfUDYqlEkx1-7" value="Web платформа" style="rounded=0;whiteSpace=wrap;html=1;fillColor=#dae8fc;strokeColor=#6c8ebf;" parent="1" vertex="1">
          <mxGeometry x="323" y="196" width="120" height="60" as="geometry" />
        </mxCell>
        <mxCell id="nMpIwDlWurfUDYqlEkx1-10" style="edgeStyle=orthogonalEdgeStyle;rounded=0;orthogonalLoop=1;jettySize=auto;html=1;entryX=1;entryY=0.5;entryDx=0;entryDy=0;startArrow=classic;startFill=1;" parent="1" source="nMpIwDlWurfUDYqlEkx1-9" target="nMpIwDlWurfUDYqlEkx1-4" edge="1">
          <mxGeometry relative="1" as="geometry" />
        </mxCell>
        <mxCell id="nMpIwDlWurfUDYqlEkx1-9" value="Мобильное приложение" style="rounded=0;whiteSpace=wrap;html=1;fillColor=#dae8fc;strokeColor=#6c8ebf;" parent="1" vertex="1">
          <mxGeometry x="323" y="270" width="120" height="60" as="geometry" />
        </mxCell>
        <mxCell id="nMpIwDlWurfUDYqlEkx1-11" style="edgeStyle=orthogonalEdgeStyle;rounded=0;orthogonalLoop=1;jettySize=auto;html=1;exitX=0.5;exitY=1;exitDx=0;exitDy=0;" parent="1" source="nMpIwDlWurfUDYqlEkx1-1" target="nMpIwDlWurfUDYqlEkx1-1" edge="1">
          <mxGeometry relative="1" as="geometry" />
        </mxCell>
        <mxCell id="nMpIwDlWurfUDYqlEkx1-15" style="edgeStyle=orthogonalEdgeStyle;rounded=0;orthogonalLoop=1;jettySize=auto;html=1;entryX=0.5;entryY=1;entryDx=0;entryDy=0;" parent="1" source="nMpIwDlWurfUDYqlEkx1-14" target="nMpIwDlWurfUDYqlEkx1-9" edge="1">
          <mxGeometry relative="1" as="geometry" />
        </mxCell>
        <mxCell id="nMpIwDlWurfUDYqlEkx1-14" value="Таймер" style="shape=dataStorage;whiteSpace=wrap;html=1;fixedSize=1;direction=south;" parent="1" vertex="1">
          <mxGeometry x="343" y="360" width="80" height="80" as="geometry" />
        </mxCell>
        <mxCell id="HqeZ5SK1sk_XmQb17yH1-2" style="edgeStyle=orthogonalEdgeStyle;rounded=0;orthogonalLoop=1;jettySize=auto;html=1;entryX=1;entryY=0.5;entryDx=0;entryDy=0;startArrow=none;startFill=0;endArrow=classic;endFill=1;" edge="1" parent="1" source="HqeZ5SK1sk_XmQb17yH1-1" target="nMpIwDlWurfUDYqlEkx1-1">
          <mxGeometry relative="1" as="geometry">
            <Array as="points">
              <mxPoint x="460" y="226" />
              <mxPoint x="460" y="111" />
            </Array>
          </mxGeometry>
        </mxCell>
        <mxCell id="HqeZ5SK1sk_XmQb17yH1-4" style="edgeStyle=orthogonalEdgeStyle;rounded=0;orthogonalLoop=1;jettySize=auto;html=1;entryX=1;entryY=0.5;entryDx=0;entryDy=0;startArrow=none;startFill=0;endArrow=classic;endFill=1;" edge="1" parent="1" source="HqeZ5SK1sk_XmQb17yH1-1" target="nMpIwDlWurfUDYqlEkx1-7">
          <mxGeometry relative="1" as="geometry" />
        </mxCell>
        <mxCell id="HqeZ5SK1sk_XmQb17yH1-5" style="edgeStyle=orthogonalEdgeStyle;rounded=0;orthogonalLoop=1;jettySize=auto;html=1;entryX=1;entryY=0.5;entryDx=0;entryDy=0;startArrow=none;startFill=0;endArrow=classic;endFill=1;" edge="1" parent="1" source="HqeZ5SK1sk_XmQb17yH1-1" target="nMpIwDlWurfUDYqlEkx1-9">
          <mxGeometry relative="1" as="geometry">
            <Array as="points">
              <mxPoint x="460" y="226" />
              <mxPoint x="460" y="300" />
            </Array>
          </mxGeometry>
        </mxCell>
        <mxCell id="HqeZ5SK1sk_XmQb17yH1-1" value="" style="shape=actor;whiteSpace=wrap;html=1;" vertex="1" parent="1">
          <mxGeometry x="490" y="196" width="40" height="60" as="geometry" />
        </mxCell>
        <mxCell id="HqeZ5SK1sk_XmQb17yH1-9" value="&lt;h1&gt;Основная идея&lt;/h1&gt;&lt;p&gt;Создать глобальный инструмент для стрелков, решающий следующие задачи:&lt;/p&gt;&lt;p&gt;1. Учет различный клубов, групп и тренеров. Состав людей на мероприятии.&lt;/p&gt;&lt;p&gt;2. Иметь возможность хранить и обрабатывать статистику (желательно, расширенную) по результатам тренировок за долгий период времени.&lt;/p&gt;&lt;p&gt;3. Непосредственная интеграция таймера через приложение в БД&amp;nbsp;&lt;/p&gt;" style="text;html=1;strokeColor=none;fillColor=none;spacing=5;spacingTop=-20;whiteSpace=wrap;overflow=hidden;rounded=0;dashed=1;" vertex="1" parent="1">
          <mxGeometry x="540" y="21" width="260" height="269" as="geometry" />
        </mxCell>
        <mxCell id="HqeZ5SK1sk_XmQb17yH1-13" value="&lt;b&gt;Telegram Bot&lt;br&gt;Основной функционал&lt;/b&gt;&lt;br&gt;&lt;div style=&quot;text-align: left&quot;&gt;&lt;span&gt;1. Запись на мероприятия.&lt;/span&gt;&lt;/div&gt;&lt;div style=&quot;text-align: left&quot;&gt;&lt;span&gt;2. Отмена записи.&lt;/span&gt;&lt;/div&gt;&lt;div style=&quot;text-align: left&quot;&gt;&lt;span&gt;3. Отказ в случае превышения максимального количества участников.&lt;/span&gt;&lt;/div&gt;&lt;div style=&quot;text-align: left&quot;&gt;&lt;span&gt;4. Просмотр результатов пары прошедших тренировок участника по сравнению с другими или усредненные результаты участника за период&lt;/span&gt;&lt;/div&gt;" style="rounded=0;whiteSpace=wrap;html=1;dashed=1;fillColor=#dae8fc;strokeColor=#6c8ebf;verticalAlign=top;" vertex="1" parent="1">
          <mxGeometry x="23" y="500" width="207" height="280" as="geometry" />
        </mxCell>
        <mxCell id="HqeZ5SK1sk_XmQb17yH1-15" value="&lt;b&gt;WEB платформа&lt;br&gt;Основной функционал&lt;/b&gt;&lt;br&gt;&lt;div style=&quot;text-align: left&quot;&gt;&lt;span&gt;1. Администрирование участников и тренеров.&lt;/span&gt;&lt;/div&gt;&lt;div style=&quot;text-align: left&quot;&gt;&lt;span&gt;2. Создание мероприятий.&lt;/span&gt;&lt;/div&gt;&lt;div style=&quot;text-align: left&quot;&gt;&lt;span&gt;3. Запись/отмена заявки на мероприятие.&lt;/span&gt;&lt;/div&gt;&lt;div style=&quot;text-align: left&quot;&gt;&lt;span&gt;4. Корректировка участников.&lt;/span&gt;&lt;/div&gt;&lt;div style=&quot;text-align: left&quot;&gt;&lt;span&gt;5.&amp;nbsp;&lt;/span&gt;&lt;span&gt;формирование и просмотр результатов мероприятия в соответствии со стандартами.&lt;/span&gt;&lt;/div&gt;&lt;div style=&quot;text-align: left&quot;&gt;&lt;span&gt;6. Просмотр количества доступных мест на мероприятии.&lt;/span&gt;&lt;/div&gt;&lt;div style=&quot;text-align: left&quot;&gt;&lt;span&gt;7. Возможность просмотра статистики участника за весь период&amp;nbsp;ведения БД.&lt;/span&gt;&lt;/div&gt;&lt;div style=&quot;text-align: left&quot;&gt;&lt;span&gt;8. Статистика в виде графиков для удобной оценки прогресса.&lt;/span&gt;&lt;/div&gt;&lt;div style=&quot;text-align: left&quot;&gt;&lt;span&gt;9. Настрел стрелка?&lt;/span&gt;&lt;/div&gt;&lt;div style=&quot;text-align: left&quot;&gt;&lt;span&gt;&lt;br&gt;&lt;/span&gt;&lt;/div&gt;" style="rounded=0;whiteSpace=wrap;html=1;dashed=1;fillColor=#dae8fc;strokeColor=#6c8ebf;verticalAlign=top;" vertex="1" parent="1">
          <mxGeometry x="264.5" y="500" width="207" height="300" as="geometry" />
        </mxCell>
        <mxCell id="HqeZ5SK1sk_XmQb17yH1-16" value="&lt;b&gt;Мобильное приложение&lt;br&gt;Основной функционал&lt;/b&gt;&lt;br&gt;&lt;div style=&quot;text-align: left&quot;&gt;&lt;span&gt;1.&amp;nbsp;&lt;/span&gt;&lt;span&gt;Создание мероприятий.&lt;/span&gt;&lt;/div&gt;&lt;div style=&quot;text-align: left&quot;&gt;&lt;span&gt;2. Работа только с подтвержденными участниками тренировки.&lt;/span&gt;&lt;/div&gt;&lt;div style=&quot;text-align: left&quot;&gt;&lt;span&gt;3. Внесение результатов тренировки как ручным вводом, так и с возможностью прямого импорта результатов с таймера.&lt;/span&gt;&lt;/div&gt;&lt;div style=&quot;text-align: left&quot;&gt;&lt;span&gt;4. Запись/отмена заявки на мероприятие.&lt;/span&gt;&lt;/div&gt;&lt;div style=&quot;text-align: left&quot;&gt;&lt;span&gt;5. Корректировка участников.&lt;/span&gt;&lt;/div&gt;&lt;div style=&quot;text-align: left&quot;&gt;&lt;span&gt;6. Просмотр количества доступных мест на мероприятии.&lt;/span&gt;&lt;/div&gt;&lt;div style=&quot;text-align: left&quot;&gt;&lt;span&gt;7.&amp;nbsp;&lt;/span&gt;&lt;span&gt;Отказ в случае превышения максимального количества участников.&lt;/span&gt;&lt;/div&gt;&lt;div style=&quot;text-align: left&quot;&gt;&lt;span&gt;8. Просмотр базовой статистики&lt;/span&gt;&lt;/div&gt;&lt;div style=&quot;text-align: left&quot;&gt;&lt;span&gt;9. Формирование и просмотр результатов мероприятия в соответствии со стандартами&lt;/span&gt;&lt;/div&gt;&lt;div style=&quot;text-align: left&quot;&gt;&lt;span&gt;&lt;br&gt;&lt;/span&gt;&lt;/div&gt;" style="rounded=0;whiteSpace=wrap;html=1;dashed=1;fillColor=#dae8fc;strokeColor=#6c8ebf;verticalAlign=top;" vertex="1" parent="1">
          <mxGeometry x="500" y="500" width="207" height="330" as="geometry" />
        </mxCell>
        <mxCell id="HqeZ5SK1sk_XmQb17yH1-21" value="Подумать потом" style="ellipse;shape=cloud;whiteSpace=wrap;html=1;dashed=1;fillColor=#ffe6cc;strokeColor=#d79b00;fontSize=34;" vertex="1" parent="1">
          <mxGeometry x="-10" y="-130" width="240" height="640" as="geometry" />
        </mxCell>
        <mxCell id="HqeZ5SK1sk_XmQb17yH1-23" value="Подумать еще о:" style="shape=table;startSize=30;container=1;collapsible=0;childLayout=tableLayout;fixedRows=1;rowLines=0;fontStyle=1;dashed=1;fontSize=12;fillColor=none;" vertex="1" parent="1">
          <mxGeometry x="23" y="870" width="687" height="120" as="geometry" />
        </mxCell>
        <mxCell id="HqeZ5SK1sk_XmQb17yH1-24" value="" style="shape=tableRow;horizontal=0;startSize=0;swimlaneHead=0;swimlaneBody=0;top=0;left=0;bottom=0;right=0;collapsible=0;dropTarget=0;fillColor=none;points=[[0,0.5],[1,0.5]];portConstraint=eastwest;dashed=1;fontSize=12;" vertex="1" parent="HqeZ5SK1sk_XmQb17yH1-23">
          <mxGeometry y="30" width="687" height="30" as="geometry" />
        </mxCell>
        <mxCell id="HqeZ5SK1sk_XmQb17yH1-25" value="1" style="shape=partialRectangle;html=1;whiteSpace=wrap;connectable=0;fillColor=none;top=0;left=0;bottom=0;right=0;overflow=hidden;pointerEvents=1;dashed=1;fontSize=12;" vertex="1" parent="HqeZ5SK1sk_XmQb17yH1-24">
          <mxGeometry width="57" height="30" as="geometry">
            <mxRectangle width="57" height="30" as="alternateBounds" />
          </mxGeometry>
        </mxCell>
        <mxCell id="HqeZ5SK1sk_XmQb17yH1-26" value="Уведомления в случае появления места." style="shape=partialRectangle;html=1;whiteSpace=wrap;connectable=0;fillColor=none;top=0;left=0;bottom=0;right=0;align=left;spacingLeft=6;overflow=hidden;dashed=1;fontSize=12;" vertex="1" parent="HqeZ5SK1sk_XmQb17yH1-24">
          <mxGeometry x="57" width="630" height="30" as="geometry">
            <mxRectangle width="630" height="30" as="alternateBounds" />
          </mxGeometry>
        </mxCell>
        <mxCell id="HqeZ5SK1sk_XmQb17yH1-27" value="" style="shape=tableRow;horizontal=0;startSize=0;swimlaneHead=0;swimlaneBody=0;top=0;left=0;bottom=0;right=0;collapsible=0;dropTarget=0;fillColor=none;points=[[0,0.5],[1,0.5]];portConstraint=eastwest;dashed=1;fontSize=12;" vertex="1" parent="HqeZ5SK1sk_XmQb17yH1-23">
          <mxGeometry y="60" width="687" height="30" as="geometry" />
        </mxCell>
        <mxCell id="HqeZ5SK1sk_XmQb17yH1-28" value="2" style="shape=partialRectangle;html=1;whiteSpace=wrap;connectable=0;fillColor=none;top=0;left=0;bottom=0;right=0;overflow=hidden;dashed=1;fontSize=12;" vertex="1" parent="HqeZ5SK1sk_XmQb17yH1-27">
          <mxGeometry width="57" height="30" as="geometry">
            <mxRectangle width="57" height="30" as="alternateBounds" />
          </mxGeometry>
        </mxCell>
        <mxCell id="HqeZ5SK1sk_XmQb17yH1-29" value="Как учитывать класс стрелка (manual, open и т.д)." style="shape=partialRectangle;html=1;whiteSpace=wrap;connectable=0;fillColor=none;top=0;left=0;bottom=0;right=0;align=left;spacingLeft=6;overflow=hidden;dashed=1;fontSize=12;" vertex="1" parent="HqeZ5SK1sk_XmQb17yH1-27">
          <mxGeometry x="57" width="630" height="30" as="geometry">
            <mxRectangle width="630" height="30" as="alternateBounds" />
          </mxGeometry>
        </mxCell>
        <mxCell id="HqeZ5SK1sk_XmQb17yH1-30" value="" style="shape=tableRow;horizontal=0;startSize=0;swimlaneHead=0;swimlaneBody=0;top=0;left=0;bottom=0;right=0;collapsible=0;dropTarget=0;fillColor=none;points=[[0,0.5],[1,0.5]];portConstraint=eastwest;dashed=1;fontSize=12;" vertex="1" parent="HqeZ5SK1sk_XmQb17yH1-23">
          <mxGeometry y="90" width="687" height="30" as="geometry" />
        </mxCell>
        <mxCell id="HqeZ5SK1sk_XmQb17yH1-31" value="3" style="shape=partialRectangle;html=1;whiteSpace=wrap;connectable=0;fillColor=none;top=0;left=0;bottom=0;right=0;overflow=hidden;dashed=1;fontSize=12;" vertex="1" parent="HqeZ5SK1sk_XmQb17yH1-30">
          <mxGeometry width="57" height="30" as="geometry">
            <mxRectangle width="57" height="30" as="alternateBounds" />
          </mxGeometry>
        </mxCell>
        <mxCell id="HqeZ5SK1sk_XmQb17yH1-32" value="Как учесть множество разных клубов." style="shape=partialRectangle;html=1;whiteSpace=wrap;connectable=0;fillColor=none;top=0;left=0;bottom=0;right=0;align=left;spacingLeft=6;overflow=hidden;dashed=1;fontSize=12;" vertex="1" parent="HqeZ5SK1sk_XmQb17yH1-30">
          <mxGeometry x="57" width="630" height="30" as="geometry">
            <mxRectangle width="630" height="30" as="alternateBounds" />
          </mxGeometry>
        </mxCell>
      </root>
    </mxGraphModel>
  </diagram>
</mxfile>
